<svg width="9" height="15" viewBox="0 0 9 15" fill="none" xmlns="http://www.w3.org/2000/svg">
<path d="M2.25753e-05 7.15751C-0.000754663 7.02302 0.0250222 6.8897 0.0758769 6.7652C0.126732 6.64069 0.201663 6.52745 0.296375 6.43196L6.4278 0.300534C6.62023 0.108105 6.88122 -5.67471e-08 7.15336 -4.48517e-08C7.42549 -3.29563e-08 7.68648 0.108105 7.87891 0.300534C8.07134 0.492962 8.17944 0.753951 8.17944 1.02609C8.17944 1.29822 8.07134 1.55921 7.87891 1.75164L2.46281 7.15751L7.86869 12.5634C8.0361 12.7589 8.12359 13.0103 8.11365 13.2675C8.10372 13.5247 7.9971 13.7687 7.8151 13.9507C7.63311 14.1327 7.38914 14.2393 7.13195 14.2492C6.87476 14.2592 6.6233 14.1717 6.4278 14.0043L0.296374 7.87285C0.107584 7.68251 0.00115171 7.4256 2.25753e-05 7.15751Z" fill="#464646"/>
</svg>
