<svg width="18" height="18" viewBox="0 0 18 18" fill="none" xmlns="http://www.w3.org/2000/svg">
<path fill-rule="evenodd" clip-rule="evenodd" d="M16.2 8.1C16.2 8.33869 16.2948 8.56761 16.4636 8.7364C16.6324 8.90518 16.8613 9 17.1 9C17.3387 9 17.5676 8.90518 17.7364 8.7364C17.9052 8.56761 18 8.33869 18 8.1V0.9C18 0.661305 17.9052 0.432387 17.7364 0.263604C17.5676 0.0948211 17.3387 0 17.1 0H9.9C9.66131 0 9.43239 0.0948211 9.2636 0.263604C9.09482 0.432387 9 0.661305 9 0.9C9 1.13869 9.09482 1.36761 9.2636 1.5364C9.43239 1.70518 9.66131 1.8 9.9 1.8H16.2V8.1ZM1.8 9.9C1.8 9.6613 1.70518 9.43239 1.5364 9.2636C1.36761 9.09482 1.13869 9 0.9 9C0.661306 9 0.432386 9.09482 0.263603 9.2636C0.09482 9.43239 0 9.6613 0 9.9V17.1C0 17.3387 0.09482 17.5676 0.263603 17.7364C0.432386 17.9052 0.661306 18 0.9 18H8.1C8.3387 18 8.56761 17.9052 8.7364 17.7364C8.90518 17.5676 9 17.3387 9 17.1C9 16.8613 8.90518 16.6324 8.7364 16.4636C8.56761 16.2948 8.3387 16.2 8.1 16.2H1.8V9.9Z" fill="#464646"/>
</svg>
