<svg width="17" height="15" viewBox="0 0 17 15" fill="none" xmlns="http://www.w3.org/2000/svg">
<path d="M15.1911 1.4366C14.3369 0.510211 13.1649 0 11.8907 0C10.9383 0 10.066 0.301125 9.29811 0.894931C8.91064 1.19464 8.55954 1.56138 8.25 1.98935C7.94056 1.56147 7.58936 1.19464 7.20177 0.894931C6.43397 0.301125 5.56172 0 4.60927 0C3.33506 0 2.16295 0.510211 1.30882 1.4366C0.4649 2.35215 0 3.60296 0 4.95873C0 6.35414 0.52004 7.63154 1.6365 8.97874C2.63526 10.1839 4.07073 11.4072 5.73304 12.8238C6.30068 13.3076 6.94408 13.8559 7.61214 14.44C7.78866 14.5946 8.01535 14.6798 8.25 14.6797C8.48477 14.6797 8.71136 14.5946 8.8876 14.4403C9.55566 13.856 10.1994 13.3074 10.7673 12.8234C12.4294 11.407 13.8648 10.1839 14.8636 8.97861C15.9801 7.63157 16.5 6.35418 16.5 4.9586C16.5 3.60296 16.0351 2.35215 15.1911 1.4366Z" fill="#A1A5AD"/>
</svg>
