<svg width="11" height="8" viewBox="0 0 11 8" fill="none" xmlns="http://www.w3.org/2000/svg">
<path fill-rule="evenodd" clip-rule="evenodd" d="M10.3078 0.192233C10.4309 0.315475 10.5 0.482547 10.5 0.656734C10.5 0.830922 10.4309 0.997985 10.3078 1.12124L3.95378 7.47526C3.83053 7.59831 3.66346 7.66746 3.48928 7.66746C3.31509 7.66746 3.14802 7.59831 3.02478 7.47526L0.17642 4.6269C0.0603118 4.5023 -0.00289542 4.33749 0.000101931 4.1672C0.00310804 3.99691 0.0720908 3.83444 0.192528 3.714C0.312956 3.59357 0.475435 3.52459 0.645723 3.52158C0.816011 3.51858 0.980813 3.58179 1.10542 3.6979L3.48928 6.08176L9.3788 0.192233C9.50202 0.0691404 9.66907 0 9.8433 0C10.0174 0 10.1846 0.0691404 10.3078 0.192233Z" fill="#32312F"/>
</svg>
